<svg viewBox="0 0 21 21" fill="none" xmlns="http://www.w3.org/2000/svg">
<path d="M18.5625 10.6543C18.5625 10.4346 18.4746 10.2324 18.2988 10.0654L12.4717 4.25586C12.2783 4.0625 12.0938 3.99219 11.8828 3.99219C11.4521 3.99219 11.1182 4.30859 11.1182 4.74805C11.1182 4.95898 11.1885 5.16113 11.3291 5.30176L13.2979 7.30566L16.251 10.0039L14.1328 9.87207H3.01465C2.55762 9.87207 2.24121 10.1973 2.24121 10.6543C2.24121 11.1113 2.55762 11.4365 3.01465 11.4365H14.1328L16.2598 11.3047L13.2979 14.0029L11.3291 16.0068C11.1885 16.1387 11.1182 16.3496 11.1182 16.5605C11.1182 17 11.4521 17.3164 11.8828 17.3164C12.0938 17.3164 12.2783 17.2373 12.4541 17.0703L18.2988 11.2432C18.4746 11.0762 18.5625 10.874 18.5625 10.6543Z" fill="black"/>
</svg>
