<svg viewBox="0 0 54 50" fill="none" xmlns="http://www.w3.org/2000/svg">
<path d="M9.24902 35.9805H18.334V34.5039H9.41309C7.69043 34.5039 6.70605 33.499 6.70605 31.8584V6.85938C6.70605 5.21875 7.69043 4.21387 9.41309 4.21387H25.1221C26.6191 4.21387 27.542 5.0957 27.624 6.51074L27.6445 7.20801C27.8291 7.1875 28.0752 7.16699 28.2803 7.16699H29.2441V6.32617C29.1006 4.15234 27.6035 2.7373 25.2861 2.7373H9.24902C6.78809 2.7373 5.22949 4.25488 5.22949 6.75684V31.9814C5.22949 34.4629 6.78809 35.9805 9.24902 35.9805ZM13.5967 11.125C13.5967 13.2168 15.2988 14.9189 17.3906 14.9189C17.8418 14.9189 18.1289 14.8369 18.334 14.7754V14.3447C18.334 14.0371 18.334 13.75 18.3545 13.4629C18.1494 13.5654 17.8213 13.6475 17.3906 13.6475C15.9756 13.6475 14.8682 12.54 14.8682 11.125C14.8682 9.73047 15.9756 8.60254 17.3906 8.60254C18.2725 8.60254 19.0518 9.05371 19.4619 9.62793C19.626 9.36133 19.9336 8.97168 20.2822 8.68457C19.667 7.90527 18.5801 7.35156 17.3906 7.33105C15.2988 7.33105 13.5967 9.05371 13.5967 11.125ZM20.1592 13.709V42.9736C20.1592 46.0088 21.7383 47.6494 24.7939 47.6494H43.4971C46.5527 47.6494 48.1318 46.0088 48.1318 42.9736V13.709C48.1318 10.6328 46.5732 9.0127 43.4971 9.0127H24.7939C21.7178 9.0127 20.1592 10.6328 20.1592 13.709ZM21.6768 13.7295C21.6768 11.5762 22.7637 10.5303 24.8555 10.5303H43.4355C45.5273 10.5303 46.6143 11.5762 46.6143 13.7295V42.9326C46.6143 45.0449 45.5068 46.1113 43.4355 46.1113H24.8555C22.7842 46.1113 21.6768 45.0449 21.6768 42.9326V13.7295ZM34.1455 22.6504C36.4834 22.6504 38.4316 20.7227 38.4111 18.4053C38.4111 16.0674 36.5039 14.2217 34.1455 14.2012C31.8076 14.1602 29.8799 16.0264 29.8799 18.4053C29.8799 20.7637 31.7871 22.6504 34.1455 22.6504ZM34.1455 21.3379C32.5254 21.3379 31.2129 20.0254 31.2129 18.4053C31.2129 16.7441 32.4844 15.4932 34.1455 15.4932C35.7451 15.4932 37.0781 16.7852 37.0781 18.4053C37.0781 20.0254 35.7861 21.3379 34.1455 21.3379ZM10.1514 24.4756C10.1514 28.3926 13.3506 31.5918 17.2881 31.5918C17.6777 31.5918 18.0674 31.5508 18.334 31.5098V27.7979C18.0879 27.8389 17.6777 27.9004 17.2881 27.9004C15.3809 27.9004 13.8633 26.4033 13.8633 24.5166C13.8633 22.6094 15.3809 21.1123 17.3086 21.1123C17.6777 21.1123 18.0879 21.1533 18.334 21.2148V17.4414C18.0469 17.4209 17.7803 17.3594 17.2881 17.3594C13.3506 17.3594 10.1514 20.5586 10.1514 24.4756ZM34.1455 42.5225C38.6572 42.5225 42.2871 38.8721 42.2871 34.3604C42.2871 29.8281 38.6572 26.2393 34.1455 26.2393C29.6543 26.1982 26.0244 29.8486 26.0244 34.3604C26.0244 38.8721 29.6543 42.5225 34.1455 42.5225ZM34.1455 38.3184C31.9717 38.3184 30.167 36.5752 30.167 34.3604C30.167 32.1045 31.9307 30.3818 34.1455 30.3818C36.3604 30.3818 38.124 32.1045 38.124 34.3604C38.124 36.5752 36.3604 38.3184 34.1455 38.3184Z" fill="black"/>
</svg>
