<svg xmlns="http://www.w3.org/2000/svg" viewBox="0 0 168 61"><g><path d="M0 0h168v61H0z"/><path d="M28.6 15v14h-1.84V18.06l-4.58 7.62h-.24l-4.58-7.6V29H15.5V15h2.1l4.46 7.4L26.5 15zm4.04 9.8a3.3 3.3 0 001.23 2.08 3.825 3.825 0 002.39.74 3.13 3.13 0 002.88-1.46l1.48.84a4.886 4.886 0 01-4.4 2.26 5.235 5.235 0 01-3.87-1.49A5.109 5.109 0 0130.86 24a5.174 5.174 0 011.46-3.76 5.042 5.042 0 013.78-1.5 4.6 4.6 0 013.59 1.55 5.393 5.393 0 011.39 3.73 5.256 5.256 0 01-.06.78zm3.46-4.42a3.435 3.435 0 00-2.32.79 3.42 3.42 0 00-1.14 2.11h6.68a3.333 3.333 0 00-1.12-2.16 3.207 3.207 0 00-2.1-.74zM43.08 29V14.4h1.74V29zm5.28-11.82a1.141 1.141 0 01-.84-.34 1.118 1.118 0 01-.34-.82 1.151 1.151 0 01.34-.83 1.125 1.125 0 01.84-.35 1.1 1.1 0 01.82.35 1.151 1.151 0 01.34.83 1.118 1.118 0 01-.34.82 1.118 1.118 0 01-.82.34zM47.48 29V19h1.74v10zm5.88-7.3a1.053 1.053 0 00.58.93 5.2 5.2 0 001.4.56q.82.21 1.64.48a3.179 3.179 0 011.4.92 2.414 2.414 0 01.58 1.67 2.628 2.628 0 01-1.05 2.18 4.241 4.241 0 01-2.69.82 4.678 4.678 0 01-2.5-.64 3.578 3.578 0 01-1.48-1.7l1.5-.86a2.11 2.11 0 00.9 1.14 2.881 2.881 0 001.58.42 2.763 2.763 0 001.42-.33 1.111 1.111 0 00.56-1.03 1.053 1.053 0 00-.58-.93 5.2 5.2 0 00-1.4-.56q-.82-.21-1.64-.49a3.3 3.3 0 01-1.4-.92 2.349 2.349 0 01-.58-1.64 2.662 2.662 0 011.01-2.14 3.823 3.823 0 012.53-.84 4.252 4.252 0 012.17.55 3.522 3.522 0 011.43 1.53l-1.46.82a2.094 2.094 0 00-2.14-1.28 2.2 2.2 0 00-1.26.35 1.125 1.125 0 00-.52.99zm12.54-2.96a3.718 3.718 0 012.82 1.11 4.178 4.178 0 011.06 3.01V29h-1.74v-6.04a2.579 2.579 0 00-.66-1.89 2.439 2.439 0 00-1.82-.67 2.82 2.82 0 00-2.1.81 3.418 3.418 0 00-.8 2.49V29h-1.74V15h1.74v5.44a3.555 3.555 0 013.24-1.7zm7.52 6.06a3.3 3.3 0 001.23 2.08 3.825 3.825 0 002.39.74 3.13 3.13 0 002.88-1.46l1.48.84a4.886 4.886 0 01-4.4 2.26 5.235 5.235 0 01-3.87-1.49A5.109 5.109 0 0171.64 24a5.174 5.174 0 011.46-3.76 5.042 5.042 0 013.78-1.5 4.6 4.6 0 013.59 1.55 5.393 5.393 0 011.39 3.73 5.256 5.256 0 01-.06.78zm3.46-4.42a3.435 3.435 0 00-2.32.79 3.42 3.42 0 00-1.14 2.11h6.68a3.333 3.333 0 00-1.12-2.16 3.207 3.207 0 00-2.1-.74zM90.46 19h1.88l-4 10H86.3l-4-10h1.88l3.14 8.14z" fill="#fff"/></g></svg>