<svg width="100" height="100" viewBox="0 0 100 100" fill="none" xmlns="http://www.w3.org/2000/svg">
<rect width="100" height="100" rx="20" fill="white"/>
<path d="M66.984 74V53.008C66.984 50.64 66.3973 48.7947 65.224 47.472C64.0507 46.128 62.4613 45.456 60.456 45.456C59.2187 45.456 58.1093 45.744 57.128 46.32C56.1467 46.8747 55.368 47.7067 54.792 48.816C54.216 49.904 53.928 51.2053 53.928 52.72L50.504 50.704C50.4827 48.3147 51.016 46.2133 52.104 44.4C53.2133 42.5653 54.7067 41.136 56.584 40.112C58.4613 39.088 60.552 38.576 62.856 38.576C66.6747 38.576 69.5973 39.728 71.624 42.032C73.672 44.3147 74.696 47.3227 74.696 51.056V74H66.984ZM25.416 74V39.44H32.232V50.16H33.192V74H25.416ZM46.248 74V53.104C46.248 50.6933 45.6613 48.816 44.488 47.472C43.3147 46.128 41.7147 45.456 39.688 45.456C37.7253 45.456 36.1467 46.128 34.952 47.472C33.7787 48.816 33.192 50.5653 33.192 52.72L29.736 50.416C29.736 48.176 30.2907 46.16 31.4 44.368C32.5093 42.576 34.0027 41.168 35.88 40.144C37.7787 39.0987 39.9013 38.576 42.248 38.576C44.8293 38.576 46.984 39.1307 48.712 40.24C50.4613 41.328 51.7627 42.8213 52.616 44.72C53.4907 46.5973 53.928 48.72 53.928 51.088V74H46.248Z" fill="black"/>
</svg>
