<svg viewBox="0 0 18 22" fill="none" xmlns="http://www.w3.org/2000/svg">
<g clip-path="url(#clip0)">
<path fill-rule="evenodd" clip-rule="evenodd" d="M-0.75 5C-0.75 4.58579 -0.414214 4.25 0 4.25H18C18.4142 4.25 18.75 4.58579 18.75 5C18.75 5.41421 18.4142 5.75 18 5.75H0C-0.414214 5.75 -0.75 5.41421 -0.75 5ZM-0.75 11C-0.75 10.5858 -0.414214 10.25 0 10.25H18C18.4142 10.25 18.75 10.5858 18.75 11C18.75 11.4142 18.4142 11.75 18 11.75H0C-0.414214 11.75 -0.75 11.4142 -0.75 11ZM-0.75 17C-0.75 16.5858 -0.414214 16.25 0 16.25H18C18.4142 16.25 18.75 16.5858 18.75 17C18.75 17.4142 18.4142 17.75 18 17.75H0C-0.414214 17.75 -0.75 17.4142 -0.75 17Z" fill="black"/>
</g>
<defs>
<clipPath id="clip0">
<rect width="18" height="22" fill="white"/>
</clipPath>
</defs>
</svg>
