<svg viewBox="0 0 94 24" fill="none" xmlns="http://www.w3.org/2000/svg">
<path d="M13.32 5.4V18H11.25V9.018L7.41599 15.354H7.16399L3.32999 9V18H1.25999V5.4H3.49199L7.29 11.7L11.106 5.4H13.32Z" fill="black"/>
<path d="M17.9023 16.02H23.4823V18H15.8323V5.4H23.3923V7.38H17.9023V10.656H22.9423V12.618H17.9023V16.02Z" fill="black"/>
<path d="M27.4472 16.02H32.5772V18H25.3772V5.4H27.4472V16.02Z" fill="black"/>
<path d="M34.1135 5.4H36.1835V18H34.1135V5.4Z" fill="black"/>
<path d="M42.7196 18.234C41.5076 18.234 40.4756 17.958 39.6236 17.406C38.7836 16.854 38.1956 16.098 37.8596 15.138L39.6416 14.094C40.1456 15.51 41.1896 16.218 42.7736 16.218C43.5536 16.218 44.1356 16.068 44.5196 15.768C44.9156 15.456 45.1136 15.054 45.1136 14.562C45.1136 14.046 44.9036 13.656 44.4836 13.392C44.0636 13.116 43.3196 12.816 42.2516 12.492C41.6516 12.312 41.1656 12.144 40.7936 11.988C40.4216 11.832 40.0256 11.616 39.6056 11.34C39.1976 11.052 38.8916 10.698 38.6876 10.278C38.4836 9.858 38.3816 9.366 38.3816 8.802C38.3816 7.686 38.7776 6.804 39.5696 6.156C40.3616 5.496 41.3156 5.166 42.4316 5.166C43.4396 5.166 44.3216 5.412 45.0776 5.904C45.8336 6.396 46.4156 7.074 46.8236 7.938L45.0776 8.946C44.5496 7.77 43.6676 7.182 42.4316 7.182C41.8316 7.182 41.3516 7.326 40.9916 7.614C40.6316 7.89 40.4516 8.268 40.4516 8.748C40.4516 9.216 40.6316 9.588 40.9916 9.864C41.3636 10.128 42.0296 10.41 42.9896 10.71C43.4696 10.866 43.8176 10.986 44.0336 11.07C44.2616 11.142 44.5736 11.262 44.9696 11.43C45.3776 11.598 45.6836 11.766 45.8876 11.934C46.0916 12.102 46.3076 12.312 46.5356 12.564C46.7756 12.816 46.9436 13.104 47.0396 13.428C47.1356 13.752 47.1836 14.118 47.1836 14.526C47.1836 15.666 46.7696 16.572 45.9416 17.244C45.1256 17.904 44.0516 18.234 42.7196 18.234Z" fill="black"/>
<path d="M56.3491 5.4H58.4191V18H56.3491V12.546H50.9491V18H48.8791V5.4H50.9491V10.566H56.3491V5.4Z" fill="black"/>
<path d="M63.0077 16.02H68.5877V18H60.9377V5.4H68.4977V7.38H63.0077V10.656H68.0477V12.618H63.0077V16.02Z" fill="black"/>
<path d="M73.6866 18L69.3126 5.4H71.5807L74.9286 15.498L78.2946 5.4H80.5446L76.1706 18H73.6866Z" fill="black"/>
<path d="M88.7489 5.4V6.282H87.7409V9H86.7868V6.282H85.7608V5.4H88.7489ZM92.0429 5.4H92.9789V9H92.0429V6.912L91.1068 8.352H91.0169L90.0808 6.93V9H89.1449V5.4H90.0808L91.0528 6.912L92.0429 5.4Z" fill="black"/>
</svg>
