<svg width="135" height="32" viewBox="0 0 135 32" fill="none" xmlns="http://www.w3.org/2000/svg">
<path d="M52.5 9.39999V22H50.034V13.828L46.488 19.678H46.2L42.654 13.846V22H40.17V9.39999H42.726L46.344 15.358L49.944 9.39999H52.5Z" fill="#3A3A3A"/>
<path d="M57.3317 19.624H62.6417V22H54.8477V9.39999H62.5517V11.776H57.3317V14.458H62.1017V16.798H57.3317V19.624Z" fill="#3A3A3A"/>
<path d="M63.4206 22V19.696C64.1646 19.804 64.7226 19.654 65.0946 19.246C65.4666 18.838 65.6526 18.04 65.6526 16.852V9.39999H74.2206V22H71.7546V11.776H68.1186V16.78C68.1186 17.872 67.9866 18.79 67.7226 19.534C67.4586 20.278 67.0926 20.83 66.6246 21.19C66.1686 21.55 65.6766 21.79 65.1486 21.91C64.6326 22.03 64.0566 22.06 63.4206 22Z" fill="#3A3A3A"/>
<path d="M81.2547 13.54C82.4667 13.54 83.4867 13.948 84.3147 14.764C85.1427 15.58 85.5567 16.582 85.5567 17.77C85.5567 18.958 85.1427 19.96 84.3147 20.776C83.4867 21.592 82.4667 22 81.2547 22H76.5567V9.39999H79.0407V13.54H81.2547ZM81.2547 19.678C81.7827 19.678 82.2207 19.498 82.5687 19.138C82.9167 18.778 83.0907 18.322 83.0907 17.77C83.0907 17.23 82.9167 16.78 82.5687 16.42C82.2207 16.048 81.7827 15.862 81.2547 15.862H79.0407V19.678H81.2547Z" fill="#3A3A3A"/>
<path d="M94.3379 9.39999H96.8039V22H94.3379V16.78H89.6579V22H87.1739V9.39999H89.6579V14.404H94.3379V9.39999Z" fill="#3A3A3A"/>
<path d="M106.435 22V14.314L101.035 22H99.1446V9.39999H101.629V17.104L107.029 9.39999H108.919V22H106.435Z" fill="#3A3A3A"/>
<path d="M120.67 19.624H122.02V24.412H119.536V22H111.256V9.39999H113.74V19.624H118.186V9.39999H120.67V19.624Z" fill="#3A3A3A"/>
<path d="M131.854 22L131.098 19.732H126.076L125.32 22H122.638L127.048 9.39999H130.126L134.554 22H131.854ZM126.868 17.41H130.324L128.596 12.262L126.868 17.41Z" fill="#3A3A3A"/>
<g clip-path="url(#clip0)">
<path d="M3.93197 0.00700876C3.77756 0.0243777 3.63332 0.092629 3.52197 0.201009L0.199974 3.52101C0.0715529 3.64995 -0.000549316 3.82452 -0.000549316 4.00651C-0.000549316 4.18849 0.0715529 4.36306 0.199974 4.49201L2.85297 7.12201C2.91202 7.21872 2.99326 7.29996 3.08997 7.35901L5.61297 9.88201C5.67202 9.97872 5.75326 10.06 5.84997 10.119L8.22297 12.513L7.92297 16.784L5.85097 18.856C5.73264 18.9205 5.63541 19.0177 5.57097 19.136L3.07097 21.616C2.96795 21.686 2.88601 21.7828 2.83397 21.896L0.199974 24.507C0.0715529 24.636 -0.000549316 24.8105 -0.000549316 24.9925C-0.000549316 25.1745 0.0715529 25.3491 0.199974 25.478L3.52197 28.8C3.65092 28.9284 3.82549 29.0005 4.00747 29.0005C4.18946 29.0005 4.36403 28.9284 4.49297 28.8L7.12397 26.147C7.18081 26.1123 7.23178 26.0687 7.27497 26.018L6.90797 31.018C6.90239 31.1121 6.91609 31.2064 6.94823 31.295C6.98037 31.3836 7.03027 31.4647 7.09488 31.5333C7.15949 31.602 7.23744 31.6567 7.32396 31.6941C7.41047 31.7315 7.50371 31.7509 7.59797 31.751H21.398C21.4922 31.7509 21.5855 31.7315 21.672 31.6941C21.7585 31.6567 21.8365 31.602 21.9011 31.5333C21.9657 31.4647 22.0156 31.3836 22.0477 31.295C22.0799 31.2064 22.0936 31.1121 22.088 31.018L21.743 26.036C21.7759 26.0684 21.8121 26.0972 21.851 26.122L24.509 28.799C24.6379 28.9274 24.8125 28.9995 24.9945 28.9995C25.1765 28.9995 25.351 28.9274 25.48 28.799L28.802 25.477C28.9304 25.3481 29.0025 25.1735 29.0025 24.9915C29.0025 24.8095 28.9304 24.635 28.802 24.506L26.192 21.896C26.1249 21.7678 26.0202 21.6631 25.892 21.596L23.433 19.137C23.3659 19.0088 23.2612 18.9041 23.133 18.837L21.079 16.785L20.779 12.514L23.13 10.141C23.1604 10.1217 23.1891 10.1 23.216 10.076L23.302 9.96801C23.3263 9.94915 23.3481 9.92731 23.367 9.90301L25.89 7.38001C25.9867 7.32096 26.0679 7.23972 26.127 7.14301L28.801 4.49001C28.9294 4.36106 29.0015 4.18649 29.0015 4.00451C29.0015 3.82252 28.9294 3.64795 28.801 3.51901L25.478 0.199009C25.4049 0.127223 25.3167 0.0727167 25.2198 0.0394921C25.1228 0.00626744 25.0197 -0.00483197 24.918 0.00700876C24.7636 0.0243777 24.6193 0.092629 24.508 0.201009L21.898 2.83201C21.7719 2.89276 21.6673 2.99041 21.598 3.11201L19.139 5.59201C19.0129 5.65276 18.9083 5.75041 18.839 5.87201L16.743 7.96401L14.953 6.39001C14.8831 6.32724 14.801 6.2795 14.7119 6.24974C14.6228 6.21998 14.5286 6.20884 14.435 6.21701H14.37C14.2481 6.24367 14.1359 6.30354 14.046 6.39001L12.256 7.96401L10.122 5.82801C10.0972 5.78909 10.0683 5.75289 10.036 5.72001L9.97097 5.67701C9.93809 5.64463 9.90189 5.61581 9.86297 5.59101L7.36297 3.06801C7.33817 3.02909 7.30935 2.99289 7.27697 2.96001L7.20897 2.91701C7.17609 2.88463 7.13989 2.85581 7.10097 2.83101L4.49197 0.199009C4.41889 0.127223 4.33066 0.0727167 4.23375 0.0394921C4.13685 0.00626744 4.03373 -0.00483197 3.93197 0.00700876ZM4.01797 1.68701L5.78697 3.45601L3.45697 5.78501L1.66697 4.01701L4.01797 1.68701ZM24.982 1.68701L27.333 4.01701L25.543 5.78601L23.209 3.45601L24.982 1.68701ZM6.77897 4.44801L8.54697 6.21701L6.21797 8.54601L4.42797 6.77701L6.77897 4.44801ZM22.222 4.44801L24.573 6.77701L22.783 8.54601L20.453 6.21701L22.222 4.44801ZM9.53897 7.20701L11.2 8.86801L8.71997 11.068L7.18897 9.53801L9.53897 7.20701ZM19.46 7.20701L21.809 9.53801L20.278 11.069L17.798 8.86901L19.46 7.20701ZM14.499 7.80701L18.187 11.042H10.809L14.499 7.80701ZM9.62497 12.423H19.374L20.669 30.373H17.261V26.922C17.268 26.5551 17.2017 26.1904 17.0661 25.8494C16.9305 25.5084 16.7283 25.1978 16.4713 24.9358C16.2143 24.6738 15.9076 24.4657 15.5692 24.3237C15.2308 24.1816 14.8675 24.1085 14.5005 24.1085C14.1335 24.1085 13.7702 24.1816 13.4318 24.3237C13.0934 24.4657 12.7867 24.6738 12.5297 24.9358C12.2726 25.1978 12.0704 25.5084 11.9348 25.8494C11.7992 26.1904 11.733 26.5551 11.74 26.922V30.373H8.33197L9.62497 12.423ZM13.809 15.879V17.95H15.189V15.879H13.809ZM7.76997 18.899L7.70897 19.956L7.20897 19.456L7.76997 18.899ZM21.229 18.899L21.79 19.46L21.29 19.96L21.229 18.899ZM6.21797 20.452L7.57697 21.807L7.42597 23.907C7.40167 23.9259 7.37983 23.9477 7.36097 23.972L6.77897 24.554L4.44897 22.22L6.21797 20.452ZM22.782 20.452L24.551 22.221L22.222 24.55L21.64 23.968C21.619 23.9526 21.5973 23.9383 21.575 23.925L21.424 21.807L22.782 20.452ZM3.45697 23.212L5.78597 25.541L4.01797 27.307L1.68897 24.981L3.45697 23.212ZM25.543 23.212L27.309 24.981L24.982 27.307L23.209 25.542L25.543 23.212ZM14.5 25.542C14.6816 25.5405 14.8617 25.5752 15.0298 25.6441C15.1979 25.7129 15.3506 25.8145 15.479 25.9429C15.6075 26.0714 15.7091 26.2241 15.7779 26.3922C15.8467 26.5603 15.8814 26.7404 15.88 26.922V30.373H13.12V26.922C13.1185 26.7404 13.1532 26.5603 13.222 26.3922C13.2909 26.2241 13.3925 26.0714 13.5209 25.9429C13.6493 25.8145 13.8021 25.7129 13.9701 25.6441C14.1382 25.5752 14.3183 25.5405 14.5 25.542Z" fill="#3A3A3A"/>
</g>
<defs>
<clipPath id="clip0">
<rect width="29" height="31.753" fill="white"/>
</clipPath>
</defs>
</svg>
